<svg width="185" height="104" viewBox="0 0 185 104" fill="none" xmlns="http://www.w3.org/2000/svg">
<path d="M108.052 62.5592C108.053 62.5524 108.053 62.5515 108.052 62.5586L108.052 62.5592Z" fill="#2B1105"/>
<path fill-rule="evenodd" clip-rule="evenodd" d="M72.1858 35.5771C73.308 35.7543 74.3116 36.2134 75.1869 36.9487C75.996 37.6284 76.4462 38.5293 76.5585 39.6069H77.1572L77.6531 33.8217C74.7915 32.8974 72.429 32.448 70.5518 32.448C65.5536 32.448 61.1579 34.3658 57.3431 38.2431C53.5594 42.0894 51.6858 46.5034 51.6858 51.5063C51.6858 55.4655 53.0573 59.0058 55.8245 62.1467C58.6237 65.2875 61.7654 66.8152 65.264 66.8152C68.1528 66.8152 70.8498 66.1328 73.3636 64.7673C75.2927 63.7194 77.5142 61.9513 79.6102 59.8594L80.3234 59.1477L80.5433 60.131C80.9116 61.7773 81.7917 63.1605 83.2093 64.2907C85.1665 65.8257 87.8366 66.6229 91.2779 66.6229C94.7169 66.6229 97.6384 65.8422 100.067 64.3053L100.069 64.3036C101.262 63.5585 102.24 62.4957 103.001 61.0961C103.754 59.7094 104.17 58.082 104.232 56.1991L104.256 55.456L104.961 55.6911C105.074 55.7287 105.264 55.7588 105.555 55.7588C106.844 55.7588 108.121 55.2376 109.396 54.1212L110.989 52.7294L110.279 54.7369L106.81 63.7872L106.808 63.7926C106.437 64.7038 105.974 65.4246 105.391 65.8912L105.382 65.8985L105.373 65.9053C104.748 66.3637 103.832 66.5415 102.737 66.5415H102.619V66.7782H110.932V66.5415H110.717C109.579 66.5415 108.749 66.497 108.312 66.3778C108.083 66.3153 107.85 66.2115 107.669 66.0305C107.474 65.8351 107.374 65.5845 107.374 65.3139C107.374 64.9293 107.514 64.3577 107.736 63.659C107.847 63.2932 107.93 63.0145 107.984 62.8208C108.011 62.7232 108.03 62.6514 108.042 62.6029C108.044 62.5935 108.046 62.5857 108.047 62.5792V62.518L111.395 53.8951H124.27L127.68 62.8197L127.684 62.831C127.845 63.314 127.967 63.6978 128.05 63.9796C128.091 64.12 128.124 64.2406 128.148 64.3381C128.166 64.4164 128.193 64.5346 128.193 64.6409C128.193 65.2624 127.933 65.7835 127.407 66.1183C126.924 66.4261 126.269 66.5415 125.523 66.5415H124.539V66.7782H135.736V66.5415H134.56C133.766 66.5415 133.069 66.342 132.551 65.8669L132.533 65.8506L132.517 65.8329C132.113 65.3918 131.732 64.7768 131.368 64.0149L131.358 63.9946L119.775 33.6711C119.767 33.6833 119.759 33.6956 119.751 33.708C119.655 33.8578 119.515 34.0563 119.336 34.2995L119.331 34.3069L119.325 34.3142C118.963 34.7756 118.568 35.2359 118.142 35.6949L118.135 35.7024L118.128 35.7097C117.912 35.9257 117.717 36.1039 117.547 36.236C117.478 36.2902 117.396 36.3498 117.306 36.4023L112.503 48.9357L112.485 48.9682C112.297 49.3123 112.133 49.635 111.979 49.9404L111.937 50.0234C111.8 50.2962 111.667 50.5589 111.535 50.802C111.245 51.3354 110.93 51.8266 110.486 52.2133C109.636 52.9523 108.589 53.3109 107.382 53.3109C107.128 53.3109 106.771 53.2558 106.344 53.1671C105.904 53.076 105.352 52.9408 104.69 52.7631L104.687 52.7622C103.434 52.4177 102.38 52.2533 101.517 52.2533C98.8599 52.2533 96.3498 54.2158 94.0512 58.5617L94.3443 58.6455C95.1777 57.3278 95.993 56.3305 96.7961 55.6881C97.7132 54.9544 98.8518 54.6051 100.171 54.6051C101.127 54.6051 101.925 54.7177 102.503 54.9967C102.8 55.1399 103.058 55.3363 103.241 55.6017C103.428 55.8716 103.514 56.1803 103.514 56.5057C103.514 59.3241 102.6 61.487 100.688 62.8682C98.8398 64.203 96.4898 64.8479 93.6814 64.8479C90.8559 64.8479 88.5723 64.081 86.9042 62.4825C85.2635 60.9101 84.4259 59.0215 84.4259 56.8422C84.4259 55.324 84.7301 53.926 85.3471 52.6578L85.3516 52.6485L85.3564 52.6394C85.6452 52.098 86.0377 51.6014 86.526 51.148C87.0154 50.6912 87.4498 50.3226 87.827 50.0483L87.8362 50.0416L87.8456 50.0353C88.276 49.7484 88.8435 49.4761 89.5315 49.2135C90.1983 48.9279 90.7539 48.7144 91.1927 48.5783C91.6274 48.4121 92.2281 48.218 92.9872 47.9964C93.5401 47.8121 93.9818 47.662 94.3139 47.5458L94.3758 46.8439C91.5475 46.6896 89.26 46.074 87.5592 44.9508L87.5551 44.9481C85.7678 43.7451 84.8105 42.1765 84.8105 40.2577C84.8105 38.3748 85.3983 36.8736 86.6507 35.8606C87.8807 34.8657 89.6633 34.4152 91.9028 34.4152C94.533 34.4152 96.595 34.7855 98.0174 35.5932C99.3296 36.3384 100.075 37.4462 100.219 38.8697L100.732 38.9018L101.218 34.1964C99.5339 33.1777 97.1836 32.6403 94.1141 32.6403C90.9162 32.6403 88.181 33.4764 85.8829 35.1306C83.6562 36.7561 82.5548 38.9284 82.5548 41.6998C82.5548 43.352 83.1087 44.7323 84.2191 45.8743C85.3469 46.9705 86.933 47.5916 89.0426 47.6834L92.4999 47.876L89.1073 48.785C86.8553 49.1502 84.8241 50.1839 83.0069 51.9087L83.0033 51.9121C82.5419 52.3423 82.1406 52.8021 81.7994 53.2925L80.6491 55.7807C80.4929 56.3668 80.3966 56.9846 80.3602 57.6347L80.3492 57.8299L80.2183 57.9751C78.5369 59.8397 76.5031 61.5451 74.6574 62.524C72.4913 63.6726 70.4782 64.2711 68.629 64.2711C65.6867 64.2711 62.6574 63.0869 59.551 60.798L59.5473 60.7952C57.9223 59.5765 56.5889 57.8482 55.5339 55.6392C54.4675 53.4064 53.9414 50.871 53.9414 48.0452C53.9414 44.1089 55.3858 40.9622 58.2862 38.6689C61.1461 36.4075 64.506 35.2805 68.3406 35.2805C69.8621 35.2805 71.1469 35.377 72.1858 35.5771ZM111.736 52.9855H123.826L117.836 37.125L111.736 52.9855Z" fill="#2B1105"/>
<circle cx="92.5" cy="52" r="51.3067" stroke="#2B1105" stroke-width="1.38667"/>
</svg>
